<svg width="32" height="41" viewBox="0 0 32 41" fill="none" xmlns="http://www.w3.org/2000/svg">
<g clip-path="url(#clip0_33_20)">
<path d="M6.46215 1.81111C7.23132 1.54786 7.96258 1.57768 8.62779 1.82946C9.26638 2.0712 9.79218 2.49699 10.2238 2.94288C10.6569 3.39026 11.0412 3.9076 11.38 4.38751C11.7369 4.89309 12.0233 5.327 12.3262 5.72543C13.6185 7.42506 16.6685 12.0596 18.0974 14.2411C18.4813 14.8272 18.7898 15.4102 19.0544 15.8788C19.33 16.367 19.5726 16.7588 19.8684 17.0958C20.4119 17.7151 21.2444 18.2754 23.131 18.5759C25.6122 18.9711 27.1199 20.649 27.8774 22.4517C28.6172 24.2125 28.7074 26.2324 28.2522 27.6083C27.4409 30.0603 25.0714 31.6332 21.2514 32.0816C20.3679 33.727 19.3219 34.9778 17.7816 35.472L17.7829 35.4726C17.7615 35.4808 17.7395 35.487 17.7182 35.4948L17.7179 35.4939C16.1979 36.0467 14.6046 35.6999 12.8982 34.941C9.60511 36.9272 6.76918 37.1365 4.62557 35.6961C3.44616 34.9036 2.33712 33.4257 1.818 31.7491C1.2895 30.0422 1.34221 28.0084 2.69824 26.2455C4.68869 23.658 4.66199 21.4576 4.45836 18.91C4.25064 16.3105 3.82061 10.7791 3.80021 8.64405C3.79543 8.14356 3.75578 7.6252 3.72802 7.00693C3.70168 6.42005 3.68828 5.77576 3.75634 5.15683C3.82418 4.53991 3.97962 3.88098 4.33615 3.29858C4.70754 2.69206 5.26712 2.22019 6.03622 1.95691C6.10838 1.93222 6.17984 1.90993 6.25031 1.88879C6.31916 1.86222 6.38979 1.83588 6.46215 1.81111Z" fill="black" stroke="white" stroke-width="2.00004"/>
<path d="M7.70641 30.8774C7.97524 30.7451 8.34704 30.6798 8.83681 30.7361C9.63261 30.8276 10.7182 31.277 11.8683 32.0869L11.8736 32.0902C12.1874 32.307 12.5228 32.57 12.8831 32.8863L12.8843 32.8869C12.9829 32.973 13.081 33.0618 13.1786 33.1526L13.1845 33.1578C13.2186 33.1893 13.2537 33.2207 13.2891 33.252C14.3055 34.1527 15.2969 34.3736 16.0762 34.3262C16.4558 34.3031 16.7692 34.2171 16.9944 34.1347C17.1073 34.0934 17.1989 34.0532 17.2652 34.0214C17.2943 34.0074 17.3178 33.9949 17.3347 33.9862C17.3363 33.9856 17.3378 33.9851 17.3384 33.985L17.3806 33.9726L17.4213 33.9556C17.6082 33.8747 18.1716 33.6819 18.6973 33.2205C19.2434 32.741 19.7297 32.0008 19.9332 30.8486L19.9344 30.843L19.9353 30.8365L19.935 30.8356C20.2874 28.7204 21.0857 27.0548 21.8867 26.2699C22.239 25.9247 22.5732 25.7481 22.8662 25.6879C23.149 25.63 23.4412 25.67 23.7495 25.8408C24.2149 26.0987 24.3375 26.3869 24.3672 26.6171C24.3959 26.8395 24.3331 27.1156 24.1339 27.4009C23.8878 27.7533 23.4545 28.0776 23.0303 28.2298C22.1234 28.5551 21.5881 28.5281 21.3074 28.4583L20.7275 28.3141L20.5211 28.8751C20.3192 29.4222 20.1554 30.074 20.0194 30.847L20.0185 30.8535L20.0176 30.8538L20.0161 30.8615C20.0073 30.9143 19.9985 30.9663 19.9889 31.0174L19.8276 31.8818L20.7022 31.8044C24.7645 31.4471 27.148 29.8832 27.9354 27.5034C28.0941 27.0237 28.1843 26.4615 28.2029 25.8604C28.2453 26.4546 28.1837 27.0214 28.0156 27.5296C27.3601 29.511 25.4826 31.2836 21.4289 31.8106L21.097 31.854L20.9325 32.1456C19.9402 33.9181 18.8976 34.8616 17.6858 35.244L17.6707 35.2482L17.6553 35.2545C16.4634 35.6948 15.0601 35.5885 13.19 34.796L12.8823 34.666L12.5934 34.8351C9.06698 36.9031 6.49638 36.6531 4.76405 35.4891C4.29338 35.1727 3.87738 34.7307 3.5356 34.1951C3.92891 34.6952 4.36294 35.1179 4.81135 35.4192C6.892 36.8173 9.73386 36.5924 13.1629 34.3852L13.9021 33.9092L13.2443 33.3262C13.2064 33.2927 13.1687 33.2575 13.1301 33.2218L13.1214 33.2145L12.8657 32.9831L12.8653 32.9821L12.5948 32.7496C12.3245 32.5231 12.0521 32.3124 11.7797 32.1203L11.7719 32.1158L11.5201 31.9501L11.0098 31.6293L10.6394 32.106C10.4626 32.3333 10.0567 32.6859 9.1326 32.9872C8.70411 33.1269 8.163 33.1362 7.75263 33.0086C7.42038 32.9051 7.20159 32.7255 7.0879 32.5322C6.9703 32.3319 6.89133 32.029 7.1012 31.5398C7.24004 31.2162 7.44672 31.0053 7.70641 30.8774ZM6.54275 2.04707C7.68157 1.65729 8.62109 1.92481 9.5041 2.62292C9.95953 2.9831 10.3961 3.49764 10.838 4.08928C11.0571 4.38258 11.2705 4.68451 11.4855 4.98861C11.6982 5.28948 11.9132 5.59389 12.1279 5.87624C13.3875 7.53295 16.4281 12.1473 17.889 14.3778C18.5318 15.359 19.2611 16.4149 20.1842 17.3916C19.2523 16.5554 18.5352 15.5185 17.8181 14.4237C16.3855 12.2366 13.3439 7.6148 12.0607 5.92712C11.7533 5.52285 11.4571 5.07421 11.1082 4.57998C10.7713 4.1028 10.3986 3.60309 9.98414 3.17494C9.5707 2.74785 9.08477 2.35954 8.5095 2.14176C7.91649 1.9173 7.26529 1.88854 6.56995 2.12652C6.49736 2.15137 6.42671 2.17754 6.3581 2.2042C6.28778 2.22512 6.21637 2.24757 6.14402 2.27233C5.44873 2.51034 4.95177 2.93227 4.62069 3.47298C4.29952 3.99763 4.15262 4.60252 4.08764 5.19343C4.02253 5.78567 4.03518 6.40878 4.06138 6.99224C4.08852 7.59665 4.1285 8.13294 4.13335 8.64079C4.15359 10.7609 4.58244 16.2771 4.7907 18.8833C4.85852 19.7318 4.87639 20.6272 4.80642 21.5224C4.82598 20.6021 4.7726 19.7182 4.70644 18.8904C4.49405 16.2326 4.06894 10.723 4.04905 8.64178C4.04565 8.28706 4.02997 7.9145 4.01366 7.54635C3.99718 7.17435 3.97985 6.80521 3.97323 6.43923C3.95986 5.70077 3.9904 5.0265 4.12961 4.46271C4.39962 3.36982 4.97791 2.58274 6.11682 2.19287C6.18192 2.17059 6.24543 2.1495 6.30717 2.13081L6.33059 2.12382L6.35244 2.11531C6.4137 2.09187 6.47745 2.06942 6.54275 2.04707Z" fill="white" stroke="white" stroke-width="1.33336"/>
<path d="M7.77561 28.888C5.65354 29.2961 4.15708 31.3637 6.03432 33.2681C7.91155 35.1725 13.8429 32.9689 13.2444 32.316C12.6458 31.663 9.89768 28.4799 7.77561 28.888Z" fill="white"/>
<path d="M21.3893 24.3244C23.2839 23.285 25.7553 23.9228 25.5244 26.5869C25.2935 29.251 19.3199 31.3375 19.3643 30.4528C19.4088 29.5682 19.4947 25.3637 21.3893 24.3244Z" fill="white"/>
</g>
<defs>
<clipPath id="clip0_33_20">
<rect width="32" height="40.7273" fill="white"/>
</clipPath>
</defs>
</svg>
